<?xml version="1.0" encoding="utf-8"?>
<!-- Generator: Adobe Illustrator 27.5.0, SVG Export Plug-In . SVG Version: 6.00 Build 0)  -->
<svg version="1.1" id="Layer_1" xmlns="http://www.w3.org/2000/svg" xmlns:xlink="http://www.w3.org/1999/xlink" x="0px" y="0px"
	 viewBox="0 0 4000 4000" style="enable-background:new 0 0 4000 4000;" xml:space="preserve">
<g>
	<rect style="fill-rule:evenodd;clip-rule:evenodd;fill:#FFFFFF;" width="4000" height="4000"/>
	<g>
		<defs>
			<path id="SVGID_1_" d="M2406.509,3014.077L1021.336,1861.601l-243.52-443.49c-8.012-278.863-1.865-636.476,4.347-754.194
				h2435.674c7.927,150.213,15.742,691.071-5.817,960.434C3161.63,2253.926,2831.805,2653.101,2406.509,3014.077"/>
		</defs>
		<clipPath id="SVGID_00000137826917861319898010000015821825963456819856_">
			<use xlink:href="#SVGID_1_"  style="overflow:visible;"/>
		</clipPath>
		
			<linearGradient id="SVGID_00000158002787041428336410000009983163289288416929_" gradientUnits="userSpaceOnUse" x1="2962.6062" y1="3428.9099" x2="-715.5566" y2="-2656.917">
			<stop  offset="0" style="stop-color:#0000FF"/>
			<stop  offset="1" style="stop-color:#00FFFF"/>
		</linearGradient>
		
			<rect x="769.805" y="663.917" style="clip-path:url(#SVGID_00000137826917861319898010000015821825963456819856_);fill:url(#SVGID_00000158002787041428336410000009983163289288416929_);" width="2463.774" height="2350.161"/>
	</g>
	<path style="opacity:0.3;fill-rule:evenodd;clip-rule:evenodd;fill:#1E003D;" d="M3136.554,2019.911
		c-194.972-205.087-419.003-338.721-640.82-437.523c-464.635-206.972-1096.01-357.647-1175.583-918.471h23.4
		c132.647,549.785,774.821,640.356,1256.531,802.558c200.031,67.352,404.207,160.74,594.34,306.061
		C3180.604,1859.394,3161.115,1941.646,3136.554,2019.911"/>
	<g>
		<defs>
			<path id="SVGID_00000097473246959359151220000001836871504982923197_" d="M3194.422,1772.536
				c-190.133-145.322-394.308-238.71-594.34-306.061c-481.71-162.202-1123.885-252.773-1256.531-802.558h1874.286
				c7.927,150.213,15.742,691.071-5.817,960.434C3207.954,1675.218,3202.047,1724.574,3194.422,1772.536"/>
		</defs>
		<clipPath id="SVGID_00000146477439915478650310000005713105212819602337_">
			<use xlink:href="#SVGID_00000097473246959359151220000001836871504982923197_"  style="overflow:visible;"/>
		</clipPath>
		
			<linearGradient id="SVGID_00000181082904807171068490000001104556181520119432_" gradientUnits="userSpaceOnUse" x1="3732.2544" y1="3851.5776" x2="1486.4215" y2="-244.9172">
			<stop  offset="0" style="stop-color:#0000FF"/>
			<stop  offset="1" style="stop-color:#00FFFF"/>
		</linearGradient>
		
			<rect x="1343.551" y="663.917" style="opacity:0.3;clip-path:url(#SVGID_00000146477439915478650310000005713105212819602337_);fill:url(#SVGID_00000181082904807171068490000001104556181520119432_);" width="1890.028" height="1108.619"/>
	</g>
	<path style="opacity:0.3;fill-rule:evenodd;clip-rule:evenodd;fill:#FFFFFF;" d="M1935.297,663.917
		c-69.36,49.303-98.443,118.828-62.613,219.151c123.572,345.987,343.526,316.332,919.356,598.062
		c163.785,80.141,298.241,171.581,406.856,261.43c-1.427,10.045-2.897,20.057-4.475,29.977
		c-190.133-145.322-394.308-238.71-594.34-306.061c-481.71-162.202-1123.885-252.773-1256.531-802.558H1935.297z"/>
	<path style="opacity:0.3;fill-rule:evenodd;clip-rule:evenodd;fill:#1E003D;" d="M3005.607,2325.774
		c-415.398-353.537-963.458-319.228-1450.091-462.18c-509.48-149.665-706.045-535.321-781.441-790.823
		c-0.122,38.438-0.093,77.67,0.113,116.99c48.908,171.798,141.932,351.365,304.588,521.891
		c541.545,567.751,1360.869,308.523,1803.448,807.595C2927.149,2457.444,2968.469,2393.149,3005.607,2325.774"/>
	<g>
		<defs>
			<path id="SVGID_00000008836256070649723400000002166959765877882044_" d="M774.188,1189.601
				c48.898,171.855,141.88,351.468,304.588,522.051c541.545,567.751,1360.841,308.575,1803.414,807.633
				c-226.025,310.885-543.552,558.615-882.188,816.793C1392.958,2873.267,853.586,2444.126,787.98,1624.351
				C778.913,1511.044,775.043,1349.706,774.188,1189.601"/>
		</defs>
		<clipPath id="SVGID_00000157302976006740776310000011127197461228287141_">
			<use xlink:href="#SVGID_00000008836256070649723400000002166959765877882044_"  style="overflow:visible;"/>
		</clipPath>
		
			<linearGradient id="SVGID_00000116919057538496666570000017242802211149474701_" gradientUnits="userSpaceOnUse" x1="2819.7498" y1="4849.3843" x2="724.0843" y2="-617.2827">
			<stop  offset="0" style="stop-color:#0000FF"/>
			<stop  offset="1" style="stop-color:#00FFFF"/>
		</linearGradient>
		
			<rect x="774.188" y="1189.601" style="clip-path:url(#SVGID_00000157302976006740776310000011127197461228287141_);fill:url(#SVGID_00000116919057538496666570000017242802211149474701_);" width="2108.002" height="2146.477"/>
	</g>
	<path style="opacity:0.3;fill-rule:evenodd;clip-rule:evenodd;fill:#020C6A;" d="M2008.214,3329.81
		c-183.983-343.398-514.91-485.386-812.713-710.253c-33.302-40.447-65.04-81.917-95.078-124.573
		c115.277-32.453,245.145-53.5,383.557-49.347c399.443,11.985,753.746,404.622,1221.939,286.219
		C2505.731,2946.565,2263.124,3135.39,2008.214,3329.81"/>
	<path style="opacity:0.3;fill-rule:evenodd;clip-rule:evenodd;fill:#FFFFFF;" d="M2008.166,3329.847
		c-183.981-343.375-514.856-485.423-812.655-710.276c218.338,265.162,503.055,486.695,804.491,716.508L2008.166,3329.847z"/>
	<path style="opacity:0.3;fill-rule:evenodd;clip-rule:evenodd;fill:#FFFFFF;" d="M2008.166,3329.847
		c-183.981-343.375-514.856-485.423-812.655-710.276c54.033,65.622,112.125,128.585,173.537,189.652
		c245.868,144.903,455.845,317.392,580.668,488.457c16.705,12.78,33.463,25.578,50.287,38.4L2008.166,3329.847z"/>
	<path style="opacity:0.3;fill-rule:evenodd;clip-rule:evenodd;fill:#020C6A;" d="M2188.421,3190.969
		c-284.357-432.935-797.201-441.24-1173.051-828.265c52.903,90.682,113.41,175.82,180.142,256.866
		c297.798,224.853,628.673,366.902,812.655,710.276C2069.092,3283.379,2129.309,3237.225,2188.421,3190.969"/>
	<path style="opacity:0.3;fill-rule:evenodd;clip-rule:evenodd;fill:#1E003D;" d="M1863.174,1934.438
		c-391.738,65.225-684.005-129.133-684.005-129.133c538.182,445.696,1287.108,244.74,1703.111,713.863
		c148.535-204.325,257.495-435.968,306.926-715.79c-191.173-81.383-339.247-111.34-471.95-109.162
		c-229.398,3.765-412.895,103.543-693.808,199.648C1968.581,1912.634,1915.006,1925.806,1863.174,1934.438"/>
</g>
</svg>
